<?xml version="1.0" standalone="no"?>
 <!DOCTYPE svg PUBLIC "-//W3C//DTD SVG 1.1//EN" 
 "http://www.w3.org/Graphics/SVG/1.1/DTD/svg11.dtd"> 
<svg
  xmlns:svg="http://www.w3.org/2000/svg"
  xmlns="http://www.w3.org/2000/svg"
  xmlns:xlink="http://www.w3.org/1999/xlink"
  version="1.1"
  width="158.1404mm" height="117.2210mm" viewBox="0.0000 0.0000 158.1404 117.2210">
<title>SVG Image created as vale_ufo-brd.svg date 2024/09/17 17:53:26 </title>
  <desc>Image generated by PCBNEW </desc>
<g style="fill:#000000; fill-opacity:1.0000;stroke:#000000; stroke-opacity:1.0000;
stroke-linecap:round; stroke-linejoin:round;"
 transform="translate(0 0) scale(1 1)">
</g>
<g style="fill:none; 
stroke:#000000; stroke-width:0.1500; stroke-opacity:1; 
stroke-linecap:round; stroke-linejoin:round;">
<path d="M42.0750 9.1529
L42.0750 8.1529
" />
<path d="M42.0750 22.1529
L42.0750 21.1529
" />
<path d="M42.0750 22.1529
L43.0750 22.1529
" />
<path d="M43.0750 8.1529
L42.0750 8.1529
" />
<path d="M55.0750 22.1529
L56.0750 22.1529
" />
<path d="M56.0750 8.1529
L55.0750 8.1529
" />
<path d="M56.0750 8.1529
L56.0750 9.1529
" />
<path d="M56.0750 21.1529
L56.0750 22.1529
" />
<path d="M61.0750 5.1529
L61.0750 4.1529
" />
<path d="M61.0750 18.1529
L61.0750 17.1529
" />
<path d="M61.0750 18.1529
L62.0750 18.1529
" />
<path d="M62.0750 4.1529
L61.0750 4.1529
" />
<path d="M74.0750 18.1529
L75.0750 18.1529
" />
<path d="M75.0750 4.1529
L74.0750 4.1529
" />
<path d="M75.0750 4.1529
L75.0750 5.1529
" />
<path d="M75.0750 17.1529
L75.0750 18.1529
" />
<path d="M80.0750 26.1529
L80.0750 25.1529
" />
<path d="M80.0750 39.1529
L80.0750 38.1529
" />
<path d="M80.0750 39.1529
L81.0750 39.1529
" />
<path d="M81.0750 25.1529
L80.0750 25.1529
" />
<path d="M93.0750 39.1529
L94.0750 39.1529
" />
<path d="M94.0750 25.1529
L93.0750 25.1529
" />
<path d="M94.0750 25.1529
L94.0750 26.1529
" />
<path d="M94.0750 38.1529
L94.0750 39.1529
" />
<path d="M80.0750 60.1529
L80.0750 59.1529
" />
<path d="M80.0750 73.1529
L80.0750 72.1529
" />
<path d="M80.0750 73.1529
L81.0750 73.1529
" />
<path d="M81.0750 59.1529
L80.0750 59.1529
" />
<path d="M93.0750 73.1529
L94.0750 73.1529
" />
<path d="M94.0750 59.1529
L93.0750 59.1529
" />
<path d="M94.0750 59.1529
L94.0750 60.1529
" />
<path d="M94.0750 72.1529
L94.0750 73.1529
" />
<path d="M142.4230 41.6589
L150.0430 41.6589
" />
<path d="M142.4230 46.7389
L142.4230 41.6589
" />
<path d="M150.0430 41.6589
L150.0430 46.7389
" />
<path d="M150.0430 46.7389
L142.4230 46.7389
" />
<path d="M23.0750 67.1529
L23.0750 66.1529
" />
<path d="M23.0750 80.1529
L23.0750 79.1529
" />
<path d="M23.0750 80.1529
L24.0750 80.1529
" />
<path d="M24.0750 66.1529
L23.0750 66.1529
" />
<path d="M36.0750 80.1529
L37.0750 80.1529
" />
<path d="M37.0750 66.1529
L36.0750 66.1529
" />
<path d="M37.0750 66.1529
L37.0750 67.1529
" />
<path d="M37.0750 79.1529
L37.0750 80.1529
" />
<path d="M99.0750 13.1529
L99.0750 12.1529
" />
<path d="M99.0750 26.1529
L99.0750 25.1529
" />
<path d="M99.0750 26.1529
L100.0750 26.1529
" />
<path d="M100.0750 12.1529
L99.0750 12.1529
" />
<path d="M112.0750 26.1529
L113.0750 26.1529
" />
<path d="M113.0750 12.1529
L112.0750 12.1529
" />
<path d="M113.0750 12.1529
L113.0750 13.1529
" />
<path d="M113.0750 25.1529
L113.0750 26.1529
" />
<path d="M143.9750 84.8529
L143.9750 78.7529
" />
<path d="M156.0750 78.7529
L143.9750 78.7529
" />
<path d="M156.0750 79.0029
L158.0750 79.0029
" />
<path d="M156.0750 84.6029
L158.0750 84.6029
" />
<path d="M156.0750 84.8529
L143.9750 84.8529
" />
<path d="M156.0750 84.8529
L156.0750 78.7529
" />
<path d="M158.0750 84.6029
L158.0750 79.0029
" />
<path d="M23.0750 50.1529
L23.0750 49.1529
" />
<path d="M23.0750 63.1529
L23.0750 62.1529
" />
<path d="M23.0750 63.1529
L24.0750 63.1529
" />
<path d="M24.0750 49.1529
L23.0750 49.1529
" />
<path d="M36.0750 63.1529
L37.0750 63.1529
" />
<path d="M37.0750 49.1529
L36.0750 49.1529
" />
<path d="M37.0750 49.1529
L37.0750 50.1529
" />
<path d="M37.0750 62.1529
L37.0750 63.1529
" />
<path d="M99.0750 47.1529
L99.0750 46.1529
" />
<path d="M99.0750 60.1529
L99.0750 59.1529
" />
<path d="M99.0750 60.1529
L100.0750 60.1529
" />
<path d="M100.0750 46.1529
L99.0750 46.1529
" />
<path d="M112.0750 60.1529
L113.0750 60.1529
" />
<path d="M113.0750 46.1529
L112.0750 46.1529
" />
<path d="M113.0750 46.1529
L113.0750 47.1529
" />
<path d="M113.0750 59.1529
L113.0750 60.1529
" />
<path d="M4.0750 67.1529
L4.0750 66.1529
" />
<path d="M4.0750 80.1529
L4.0750 79.1529
" />
<path d="M4.0750 80.1529
L5.0750 80.1529
" />
<path d="M5.0750 66.1529
L4.0750 66.1529
" />
<path d="M17.0750 80.1529
L18.0750 80.1529
" />
<path d="M18.0750 66.1529
L17.0750 66.1529
" />
<path d="M18.0750 66.1529
L18.0750 67.1529
" />
<path d="M18.0750 79.1529
L18.0750 80.1529
" />
<path d="M23.0750 16.1529
L23.0750 15.1529
" />
<path d="M23.0750 29.1529
L23.0750 28.1529
" />
<path d="M23.0750 29.1529
L24.0750 29.1529
" />
<path d="M24.0750 15.1529
L23.0750 15.1529
" />
<path d="M36.0750 29.1529
L37.0750 29.1529
" />
<path d="M37.0750 15.1529
L36.0750 15.1529
" />
<path d="M37.0750 15.1529
L37.0750 16.1529
" />
<path d="M37.0750 28.1529
L37.0750 29.1529
" />
<path d="M61.0750 56.1529
L61.0750 55.1529
" />
<path d="M61.0750 69.1529
L61.0750 68.1529
" />
<path d="M61.0750 69.1529
L62.0750 69.1529
" />
<path d="M62.0750 55.1529
L61.0750 55.1529
" />
<path d="M74.0750 69.1529
L75.0750 69.1529
" />
<path d="M75.0750 55.1529
L74.0750 55.1529
" />
<path d="M75.0750 55.1529
L75.0750 56.1529
" />
<path d="M75.0750 68.1529
L75.0750 69.1529
" />
<path d="M4.0750 33.1529
L4.0750 32.1529
" />
<path d="M4.0750 46.1529
L4.0750 45.1529
" />
<path d="M4.0750 46.1529
L5.0750 46.1529
" />
<path d="M5.0750 32.1529
L4.0750 32.1529
" />
<path d="M17.0750 46.1529
L18.0750 46.1529
" />
<path d="M18.0750 32.1529
L17.0750 32.1529
" />
<path d="M18.0750 32.1529
L18.0750 33.1529
" />
<path d="M18.0750 45.1529
L18.0750 46.1529
" />
<path d="M61.0750 22.1529
L61.0750 21.1529
" />
<path d="M61.0750 35.1529
L61.0750 34.1529
" />
<path d="M61.0750 35.1529
L62.0750 35.1529
" />
<path d="M62.0750 21.1529
L61.0750 21.1529
" />
<path d="M74.0750 35.1529
L75.0750 35.1529
" />
<path d="M75.0750 21.1529
L74.0750 21.1529
" />
<path d="M75.0750 21.1529
L75.0750 22.1529
" />
<path d="M75.0750 34.1529
L75.0750 35.1529
" />
<path d="M110.1805 96.0379
L110.5551 95.1107
" />
<path d="M110.1805 96.0379
L111.1077 96.4125
" />
<path d="M115.0504 83.9845
L115.4250 83.0573
" />
<path d="M116.3522 83.4319
L115.4250 83.0573
" />
<path d="M122.2339 100.9077
L123.1611 101.2823
" />
<path d="M123.5357 100.3552
L123.1611 101.2823
" />
<path d="M128.4055 88.3018
L127.4784 87.9272
" />
<path d="M128.4055 88.3018
L128.0309 89.2290
" />
<path d="M4.0750 50.1529
L4.0750 49.1529
" />
<path d="M4.0750 63.1529
L4.0750 62.1529
" />
<path d="M4.0750 63.1529
L5.0750 63.1529
" />
<path d="M5.0750 49.1529
L4.0750 49.1529
" />
<path d="M17.0750 63.1529
L18.0750 63.1529
" />
<path d="M18.0750 49.1529
L17.0750 49.1529
" />
<path d="M18.0750 49.1529
L18.0750 50.1529
" />
<path d="M18.0750 62.1529
L18.0750 63.1529
" />
<path d="M42.0750 43.1529
L42.0750 42.1529
" />
<path d="M42.0750 56.1529
L42.0750 55.1529
" />
<path d="M42.0750 56.1529
L43.0750 56.1529
" />
<path d="M43.0750 42.1529
L42.0750 42.1529
" />
<path d="M55.0750 56.1529
L56.0750 56.1529
" />
<path d="M56.0750 42.1529
L55.0750 42.1529
" />
<path d="M56.0750 42.1529
L56.0750 43.1529
" />
<path d="M56.0750 55.1529
L56.0750 56.1529
" />
<path d="M99.0750 64.1529
L99.0750 63.1529
" />
<path d="M99.0750 77.1529
L99.0750 76.1529
" />
<path d="M99.0750 77.1529
L100.0750 77.1529
" />
<path d="M100.0750 63.1529
L99.0750 63.1529
" />
<path d="M112.0750 77.1529
L113.0750 77.1529
" />
<path d="M113.0750 63.1529
L112.0750 63.1529
" />
<path d="M113.0750 63.1529
L113.0750 64.1529
" />
<path d="M113.0750 76.1529
L113.0750 77.1529
" />
<path d="M118.0750 47.1529
L118.0750 46.1529
" />
<path d="M118.0750 60.1529
L118.0750 59.1529
" />
<path d="M118.0750 60.1529
L119.0750 60.1529
" />
<path d="M119.0750 46.1529
L118.0750 46.1529
" />
<path d="M131.0750 60.1529
L132.0750 60.1529
" />
<path d="M132.0750 46.1529
L131.0750 46.1529
" />
<path d="M132.0750 46.1529
L132.0750 47.1529
" />
<path d="M132.0750 59.1529
L132.0750 60.1529
" />
<path d="M23.0750 33.1529
L23.0750 32.1529
" />
<path d="M23.0750 46.1529
L23.0750 45.1529
" />
<path d="M23.0750 46.1529
L24.0750 46.1529
" />
<path d="M24.0750 32.1529
L23.0750 32.1529
" />
<path d="M36.0750 46.1529
L37.0750 46.1529
" />
<path d="M37.0750 32.1529
L36.0750 32.1529
" />
<path d="M37.0750 32.1529
L37.0750 33.1529
" />
<path d="M37.0750 45.1529
L37.0750 46.1529
" />
<path d="M99.0750 30.1529
L99.0750 29.1529
" />
<path d="M99.0750 43.1529
L99.0750 42.1529
" />
<path d="M99.0750 43.1529
L100.0750 43.1529
" />
<path d="M100.0750 29.1529
L99.0750 29.1529
" />
<path d="M112.0750 43.1529
L113.0750 43.1529
" />
<path d="M113.0750 29.1529
L112.0750 29.1529
" />
<path d="M113.0750 29.1529
L113.0750 30.1529
" />
<path d="M113.0750 42.1529
L113.0750 43.1529
" />
<path d="M80.0750 43.1529
L80.0750 42.1529
" />
<path d="M80.0750 56.1529
L80.0750 55.1529
" />
<path d="M80.0750 56.1529
L81.0750 56.1529
" />
<path d="M81.0750 42.1529
L80.0750 42.1529
" />
<path d="M93.0750 56.1529
L94.0750 56.1529
" />
<path d="M94.0750 42.1529
L93.0750 42.1529
" />
<path d="M94.0750 42.1529
L94.0750 43.1529
" />
<path d="M94.0750 55.1529
L94.0750 56.1529
" />
<path d="M42.0750 60.1529
L42.0750 59.1529
" />
<path d="M42.0750 73.1529
L42.0750 72.1529
" />
<path d="M42.0750 73.1529
L43.0750 73.1529
" />
<path d="M43.0750 59.1529
L42.0750 59.1529
" />
<path d="M55.0750 73.1529
L56.0750 73.1529
" />
<path d="M56.0750 59.1529
L55.0750 59.1529
" />
<path d="M56.0750 59.1529
L56.0750 60.1529
" />
<path d="M56.0750 72.1529
L56.0750 73.1529
" />
<path d="M42.0750 26.1529
L42.0750 25.1529
" />
<path d="M42.0750 39.1529
L42.0750 38.1529
" />
<path d="M42.0750 39.1529
L43.0750 39.1529
" />
<path d="M43.0750 25.1529
L42.0750 25.1529
" />
<path d="M55.0750 39.1529
L56.0750 39.1529
" />
<path d="M56.0750 25.1529
L55.0750 25.1529
" />
<path d="M56.0750 25.1529
L56.0750 26.1529
" />
<path d="M56.0750 38.1529
L56.0750 39.1529
" />
<path d="M127.2160 103.9395
L127.8588 103.1735
" />
<path d="M127.2160 103.9395
L127.9820 104.5823
" />
<path d="M135.5722 93.9809
L136.2150 93.2149
" />
<path d="M136.9810 93.8577
L136.2150 93.2149
" />
<path d="M137.1745 112.2958
L137.9406 112.9385
" />
<path d="M138.5834 112.1725
L137.9406 112.9385
" />
<path d="M146.9396 102.2139
L146.1736 101.5711
" />
<path d="M146.9396 102.2139
L146.2968 102.9800
" />
<path d="M61.0750 39.1529
L61.0750 38.1529
" />
<path d="M61.0750 52.1529
L61.0750 51.1529
" />
<path d="M61.0750 52.1529
L62.0750 52.1529
" />
<path d="M62.0750 38.1529
L61.0750 38.1529
" />
<path d="M74.0750 52.1529
L75.0750 52.1529
" />
<path d="M75.0750 38.1529
L74.0750 38.1529
" />
<path d="M75.0750 38.1529
L75.0750 39.1529
" />
<path d="M75.0750 51.1529
L75.0750 52.1529
" />
<path d="M91.0750 82.1529
L91.0750 81.1529
" />
<path d="M91.0750 95.1529
L91.0750 94.1529
" />
<path d="M91.0750 95.1529
L92.0750 95.1529
" />
<path d="M92.0750 81.1529
L91.0750 81.1529
" />
<path d="M104.0750 95.1529
L105.0750 95.1529
" />
<path d="M105.0750 81.1529
L104.0750 81.1529
" />
<path d="M105.0750 81.1529
L105.0750 82.1529
" />
<path d="M105.0750 94.1529
L105.0750 95.1529
" />
<path d="M80.0750 9.1529
L80.0750 8.1529
" />
<path d="M80.0750 22.1529
L80.0750 21.1529
" />
<path d="M80.0750 22.1529
L81.0750 22.1529
" />
<path d="M81.0750 8.1529
L80.0750 8.1529
" />
<path d="M93.0750 22.1529
L94.0750 22.1529
" />
<path d="M94.0750 8.1529
L93.0750 8.1529
" />
<path d="M94.0750 8.1529
L94.0750 9.1529
" />
<path d="M94.0750 21.1529
L94.0750 22.1529
" />
<path d="M118.0750 30.1529
L118.0750 29.1529
" />
<path d="M118.0750 43.1529
L118.0750 42.1529
" />
<path d="M118.0750 43.1529
L119.0750 43.1529
" />
<path d="M119.0750 29.1529
L118.0750 29.1529
" />
<path d="M131.0750 43.1529
L132.0750 43.1529
" />
<path d="M132.0750 29.1529
L131.0750 29.1529
" />
<path d="M132.0750 29.1529
L132.0750 30.1529
" />
<path d="M132.0750 42.1529
L132.0750 43.1529
" />
<path d="M118.0750 64.1529
L118.0750 63.1529
" />
<path d="M118.0750 77.1529
L118.0750 76.1529
" />
<path d="M118.0750 77.1529
L119.0750 77.1529
" />
<path d="M119.0750 63.1529
L118.0750 63.1529
" />
<path d="M131.0750 77.1529
L132.0750 77.1529
" />
<path d="M132.0750 63.1529
L131.0750 63.1529
" />
<path d="M132.0750 63.1529
L132.0750 64.1529
" />
<path d="M132.0750 76.1529
L132.0750 77.1529
" />
<circle cx="143.0750" cy="91.6529" r="2.2000" /> 
<circle cx="14.7250" cy="25.6529" r="2.2000" /> 
<circle cx="152.5750" cy="42.1529" r="2.2000" /> 
<circle cx="149.0750" cy="95.1529" r="2.2000" /> 
<circle cx="119.0750" cy="23.6529" r="2.2000" /> 
<circle cx="81.4250" cy="79.4862" r="2.2000" /> 
<circle cx="42.5750" cy="79.4862" r="2.2000" /> 
<circle cx="139.5750" cy="42.1529" r="2.2000" /> 
<path d="M149.0837 102.3813
L135.6779 91.1325
" />
<path d="M57.8250 40.4029
L57.8250 23.9029
" />
<path d="M38.8250 47.9029
L21.3250 47.9029
" />
<path d="M97.3250 27.4029
L114.8250 27.4029
" />
<path d="M78.3250 57.9029
L78.3250 74.4029
" />
<path d="M57.8250 74.4029
L57.8250 57.9029
" />
<path d="M40.3250 74.4029
L57.8250 74.4029
" />
<path d="M106.8250 79.9029
L89.3250 79.9029
" />
<path d="M114.8250 10.9029
L97.3250 10.9029
" />
<path d="M130.4964 87.7984
L114.2707 81.2427
" />
<path d="M138.4777 115.0210
L149.0837 102.3813
" />
<path d="M116.3250 44.4029
L133.8250 44.4029
" />
<path d="M116.3250 27.9029
L116.3250 44.4029
" />
<path d="M38.8250 64.9029
L21.3250 64.9029
" />
<path d="M106.8250 96.4029
L106.8250 79.9029
" />
<path d="M97.3250 61.4029
L114.8250 61.4029
" />
<path d="M89.3250 96.4029
L106.8250 96.4029
" />
<path d="M116.3250 61.4029
L133.8250 61.4029
" />
<path d="M97.3250 61.9029
L97.3250 78.4029
" />
<path d="M95.8250 40.9029
L78.3250 40.9029
" />
<path d="M19.8250 47.4029
L19.8250 30.9029
" />
<path d="M95.8250 57.4029
L95.8250 40.9029
" />
<path d="M19.8250 47.9029
L2.3250 47.9029
" />
<path d="M133.8250 44.9029
L116.3250 44.9029
" />
<path d="M76.8250 53.4029
L76.8250 36.9029
" />
<path d="M19.8250 81.4029
L19.8250 64.9029
" />
<path d="M19.8250 30.9029
L2.3250 30.9029
" />
<path d="M133.8250 61.4029
L133.8250 44.9029
" />
<path d="M19.8250 64.9029
L2.3250 64.9029
" />
<path d="M133.8250 44.4029
L133.8250 27.9029
" />
<path d="M114.8250 61.9029
L97.3250 61.9029
" />
<path d="M57.8250 23.4029
L57.8250 6.9029
" />
<path d="M114.8250 61.4029
L114.8250 44.9029
" />
<path d="M2.3250 47.4029
L19.8250 47.4029
" />
<path d="M40.3250 23.4029
L57.8250 23.4029
" />
<path d="M59.3250 36.4029
L76.8250 36.4029
" />
<path d="M21.3250 64.4029
L38.8250 64.4029
" />
<path d="M2.3250 64.9029
L2.3250 81.4029
" />
<path d="M59.3250 36.9029
L59.3250 53.4029
" />
<path d="M114.8250 27.9029
L97.3250 27.9029
" />
<path d="M95.8250 6.9029
L78.3250 6.9029
" />
<path d="M78.3250 23.9029
L78.3250 40.4029
" />
<path d="M40.3250 57.9029
L40.3250 74.4029
" />
<path d="M78.3250 57.4029
L95.8250 57.4029
" />
<path d="M38.8250 13.9029
L21.3250 13.9029
" />
<path d="M57.8250 57.4029
L57.8250 40.9029
" />
<path d="M57.8250 57.9029
L40.3250 57.9029
" />
<path d="M38.8250 30.4029
L38.8250 13.9029
" />
<path d="M2.3250 30.9029
L2.3250 47.4029
" />
<path d="M116.3250 78.4029
L133.8250 78.4029
" />
<path d="M114.2707 81.2427
L108.0896 96.5413
" />
<path d="M76.8250 2.9029
L59.3250 2.9029
" />
<path d="M97.3250 44.4029
L114.8250 44.4029
" />
<path d="M133.8250 27.9029
L116.3250 27.9029
" />
<path d="M21.3250 64.9029
L21.3250 81.4029
" />
<path d="M125.0719 103.7722
L138.4777 115.0210
" />
<path d="M95.8250 74.4029
L95.8250 57.9029
" />
<path d="M57.8250 6.9029
L40.3250 6.9029
" />
<path d="M95.8250 57.9029
L78.3250 57.9029
" />
<path d="M40.3250 40.4029
L57.8250 40.4029
" />
<path d="M38.8250 64.4029
L38.8250 47.9029
" />
<path d="M95.8250 40.4029
L95.8250 23.9029
" />
<path d="M38.8250 47.4029
L38.8250 30.9029
" />
<path d="M97.3250 44.9029
L97.3250 61.4029
" />
<path d="M76.8250 70.4029
L76.8250 53.9029
" />
<path d="M40.3250 23.9029
L40.3250 40.4029
" />
<path d="M19.8250 64.4029
L19.8250 47.9029
" />
<path d="M59.3250 53.4029
L76.8250 53.4029
" />
<path d="M133.8250 78.4029
L133.8250 61.9029
" />
<path d="M21.3250 81.4029
L38.8250 81.4029
" />
<path d="M78.3250 23.4029
L95.8250 23.4029
" />
<path d="M76.8250 19.9029
L59.3250 19.9029
" />
<path d="M21.3250 30.4029
L38.8250 30.4029
" />
<path d="M95.8250 23.9029
L78.3250 23.9029
" />
<path d="M57.8250 23.9029
L40.3250 23.9029
" />
<path d="M114.8250 27.4029
L114.8250 10.9029
" />
<path d="M59.3250 2.9029
L59.3250 19.4029
" />
<path d="M97.3250 10.9029
L97.3250 27.4029
" />
<path d="M40.3250 57.4029
L57.8250 57.4029
" />
<path d="M135.6779 91.1325
L125.0719 103.7722
" />
<path d="M114.8250 44.9029
L97.3250 44.9029
" />
<path d="M21.3250 47.9029
L21.3250 64.4029
" />
<path d="M21.3250 30.9029
L21.3250 47.4029
" />
<path d="M59.3250 70.4029
L76.8250 70.4029
" />
<path d="M57.8250 40.9029
L40.3250 40.9029
" />
<path d="M133.8250 61.9029
L116.3250 61.9029
" />
<path d="M2.3250 81.4029
L19.8250 81.4029
" />
<path d="M78.3250 40.9029
L78.3250 57.4029
" />
<path d="M114.8250 44.4029
L114.8250 27.9029
" />
<path d="M116.3250 44.9029
L116.3250 61.4029
" />
<path d="M76.8250 19.4029
L76.8250 2.9029
" />
<path d="M116.3250 61.9029
L116.3250 78.4029
" />
<path d="M108.0896 96.5413
L124.3154 103.0969
" />
<path d="M38.8250 30.9029
L21.3250 30.9029
" />
<path d="M2.3250 64.4029
L19.8250 64.4029
" />
<path d="M59.3250 53.9029
L59.3250 70.4029
" />
<path d="M2.3250 47.9029
L2.3250 64.4029
" />
<path d="M78.3250 40.4029
L95.8250 40.4029
" />
<path d="M21.3250 47.4029
L38.8250 47.4029
" />
<path d="M78.3250 74.4029
L95.8250 74.4029
" />
<path d="M21.3250 13.9029
L21.3250 30.4029
" />
<path d="M78.3250 6.9029
L78.3250 23.4029
" />
<path d="M114.8250 78.4029
L114.8250 61.9029
" />
<path d="M76.8250 36.4029
L76.8250 19.9029
" />
<path d="M97.3250 78.4029
L114.8250 78.4029
" />
<path d="M89.3250 79.9029
L89.3250 96.4029
" />
<path d="M124.3154 103.0969
L130.4964 87.7984
" />
<path d="M76.8250 36.9029
L59.3250 36.9029
" />
<path d="M95.8250 23.4029
L95.8250 6.9029
" />
<path d="M40.3250 40.9029
L40.3250 57.4029
" />
<path d="M38.8250 81.4029
L38.8250 64.9029
" />
<path d="M59.3250 19.9029
L59.3250 36.4029
" />
<path d="M59.3250 19.4029
L76.8250 19.4029
" />
<path d="M40.3250 6.9029
L40.3250 23.4029
" />
<path d="M97.3250 27.9029
L97.3250 44.4029
" />
<path d="M76.8250 53.9029
L59.3250 53.9029
" />
<path d="M0.8750 27.0529 A2.0000 2.0000 0.0 0 0 0.0750 28.6529" />
<path d="M158.0750 46.1529 A105.0253 105.0253 0.0 0 0 0.8750 27.0529" />
<path d="M0.0750 81.1529 A2.5000 2.5000 0.0 0 0 2.5750 83.6529" />
<path d="M87.0750 96.1529 A2.5000 2.5000 0.0 0 0 89.5750 98.6529" />
<path d="M152.2535 102.1039
L140.3428 116.4207
" />
<path d="M0.0750 81.1529
L0.0750 28.6529
" />
<path d="M132.0750 112.3905
L137.0750 116.6529
" />
<path d="M158.0750 46.1529
L158.0750 86.5529
" />
<path d="M87.0750 96.1529
L87.0750 89.1529
" />
<path d="M87.0750 89.1529 A5.5000 5.5000 0.0 0 0 81.5750 83.6529" />
<path d="M132.0750 112.3905 A57.2823 57.2823 0.0 0 0 94.5750 98.6529" />
<path d="M81.5750 83.6529
L2.5750 83.6529
" />
<path d="M137.0750 116.6529 A2.5000 2.5000 0.0 0 0 140.3428 116.4207" />
<path d="M89.5750 98.6529
L94.5750 98.6529
" />
<path d="M158.0750 86.5529
L152.2535 102.1039
" />
</g> 
</svg>
