<?xml version="1.0" standalone="no"?>
 <!DOCTYPE svg PUBLIC "-//W3C//DTD SVG 1.1//EN" 
 "http://www.w3.org/Graphics/SVG/1.1/DTD/svg11.dtd"> 
<svg
  xmlns:svg="http://www.w3.org/2000/svg"
  xmlns="http://www.w3.org/2000/svg"
  xmlns:xlink="http://www.w3.org/1999/xlink"
  version="1.1"
  width="158.1912mm" height="118.3132mm" viewBox="0.0000 0.0000 158.1912 118.3132">
<title>SVG Image created as ergovale-brd.svg date 2024/08/19 14:10:24 </title>
  <desc>Image generated by PCBNEW </desc>
<g style="fill:#000000; fill-opacity:1.0000;stroke:#000000; stroke-opacity:1.0000;
stroke-linecap:round; stroke-linejoin:round;"
 transform="translate(0 0) scale(1 1)">
</g>
<g style="fill:none; 
stroke:#C2C2C2; stroke-width:0.1500; stroke-opacity:1; 
stroke-linecap:round; stroke-linejoin:round;">
<path d="M42.1088 9.2190
L42.1088 8.2190
" />
<path d="M42.1088 22.2190
L42.1088 21.2190
" />
<path d="M42.1088 22.2190
L43.1088 22.2190
" />
<path d="M43.1088 8.2190
L42.1088 8.2190
" />
<path d="M55.1088 22.2190
L56.1088 22.2190
" />
<path d="M56.1088 8.2190
L55.1088 8.2190
" />
<path d="M56.1088 8.2190
L56.1088 9.2190
" />
<path d="M56.1088 21.2190
L56.1088 22.2190
" />
<path d="M61.1088 5.2190
L61.1088 4.2190
" />
<path d="M61.1088 18.2190
L61.1088 17.2190
" />
<path d="M61.1088 18.2190
L62.1088 18.2190
" />
<path d="M62.1088 4.2190
L61.1088 4.2190
" />
<path d="M74.1088 18.2190
L75.1088 18.2190
" />
<path d="M75.1088 4.2190
L74.1088 4.2190
" />
<path d="M75.1088 4.2190
L75.1088 5.2190
" />
<path d="M75.1088 17.2190
L75.1088 18.2190
" />
<path d="M80.1088 26.2190
L80.1088 25.2190
" />
<path d="M80.1088 39.2190
L80.1088 38.2190
" />
<path d="M80.1088 39.2190
L81.1088 39.2190
" />
<path d="M81.1088 25.2190
L80.1088 25.2190
" />
<path d="M93.1088 39.2190
L94.1088 39.2190
" />
<path d="M94.1088 25.2190
L93.1088 25.2190
" />
<path d="M94.1088 25.2190
L94.1088 26.2190
" />
<path d="M94.1088 38.2190
L94.1088 39.2190
" />
<path d="M80.1088 60.2190
L80.1088 59.2190
" />
<path d="M80.1088 73.2190
L80.1088 72.2190
" />
<path d="M80.1088 73.2190
L81.1088 73.2190
" />
<path d="M81.1088 59.2190
L80.1088 59.2190
" />
<path d="M93.1088 73.2190
L94.1088 73.2190
" />
<path d="M94.1088 59.2190
L93.1088 59.2190
" />
<path d="M94.1088 59.2190
L94.1088 60.2190
" />
<path d="M94.1088 72.2190
L94.1088 73.2190
" />
<path d="M142.4568 41.7250
L150.0768 41.7250
" />
<path d="M142.4568 46.8050
L142.4568 41.7250
" />
<path d="M150.0768 41.7250
L150.0768 46.8050
" />
<path d="M150.0768 46.8050
L142.4568 46.8050
" />
<path d="M23.1088 67.2190
L23.1088 66.2190
" />
<path d="M23.1088 80.2190
L23.1088 79.2190
" />
<path d="M23.1088 80.2190
L24.1088 80.2190
" />
<path d="M24.1088 66.2190
L23.1088 66.2190
" />
<path d="M36.1088 80.2190
L37.1088 80.2190
" />
<path d="M37.1088 66.2190
L36.1088 66.2190
" />
<path d="M37.1088 66.2190
L37.1088 67.2190
" />
<path d="M37.1088 79.2190
L37.1088 80.2190
" />
<path d="M99.1088 13.2190
L99.1088 12.2190
" />
<path d="M99.1088 26.2190
L99.1088 25.2190
" />
<path d="M99.1088 26.2190
L100.1088 26.2190
" />
<path d="M100.1088 12.2190
L99.1088 12.2190
" />
<path d="M112.1088 26.2190
L113.1088 26.2190
" />
<path d="M113.1088 12.2190
L112.1088 12.2190
" />
<path d="M113.1088 12.2190
L113.1088 13.2190
" />
<path d="M113.1088 25.2190
L113.1088 26.2190
" />
<path d="M140.7588 84.9190
L140.7588 78.8190
" />
<path d="M152.8588 78.8190
L140.7588 78.8190
" />
<path d="M152.8588 79.0690
L154.8588 79.0690
" />
<path d="M152.8588 84.6690
L154.8588 84.6690
" />
<path d="M152.8588 84.9190
L140.7588 84.9190
" />
<path d="M152.8588 84.9190
L152.8588 78.8190
" />
<path d="M154.8588 84.6690
L154.8588 79.0690
" />
<path d="M23.1088 50.2190
L23.1088 49.2190
" />
<path d="M23.1088 63.2190
L23.1088 62.2190
" />
<path d="M23.1088 63.2190
L24.1088 63.2190
" />
<path d="M24.1088 49.2190
L23.1088 49.2190
" />
<path d="M36.1088 63.2190
L37.1088 63.2190
" />
<path d="M37.1088 49.2190
L36.1088 49.2190
" />
<path d="M37.1088 49.2190
L37.1088 50.2190
" />
<path d="M37.1088 62.2190
L37.1088 63.2190
" />
<path d="M99.1088 47.2190
L99.1088 46.2190
" />
<path d="M99.1088 60.2190
L99.1088 59.2190
" />
<path d="M99.1088 60.2190
L100.1088 60.2190
" />
<path d="M100.1088 46.2190
L99.1088 46.2190
" />
<path d="M112.1088 60.2190
L113.1088 60.2190
" />
<path d="M113.1088 46.2190
L112.1088 46.2190
" />
<path d="M113.1088 46.2190
L113.1088 47.2190
" />
<path d="M113.1088 59.2190
L113.1088 60.2190
" />
<path d="M4.1088 67.2190
L4.1088 66.2190
" />
<path d="M4.1088 80.2190
L4.1088 79.2190
" />
<path d="M4.1088 80.2190
L5.1088 80.2190
" />
<path d="M5.1088 66.2190
L4.1088 66.2190
" />
<path d="M17.1088 80.2190
L18.1088 80.2190
" />
<path d="M18.1088 66.2190
L17.1088 66.2190
" />
<path d="M18.1088 66.2190
L18.1088 67.2190
" />
<path d="M18.1088 79.2190
L18.1088 80.2190
" />
<path d="M23.1088 16.2190
L23.1088 15.2190
" />
<path d="M23.1088 29.2190
L23.1088 28.2190
" />
<path d="M23.1088 29.2190
L24.1088 29.2190
" />
<path d="M24.1088 15.2190
L23.1088 15.2190
" />
<path d="M36.1088 29.2190
L37.1088 29.2190
" />
<path d="M37.1088 15.2190
L36.1088 15.2190
" />
<path d="M37.1088 15.2190
L37.1088 16.2190
" />
<path d="M37.1088 28.2190
L37.1088 29.2190
" />
<path d="M61.1088 56.2190
L61.1088 55.2190
" />
<path d="M61.1088 69.2190
L61.1088 68.2190
" />
<path d="M61.1088 69.2190
L62.1088 69.2190
" />
<path d="M62.1088 55.2190
L61.1088 55.2190
" />
<path d="M74.1088 69.2190
L75.1088 69.2190
" />
<path d="M75.1088 55.2190
L74.1088 55.2190
" />
<path d="M75.1088 55.2190
L75.1088 56.2190
" />
<path d="M75.1088 68.2190
L75.1088 69.2190
" />
<path d="M4.1088 33.2190
L4.1088 32.2190
" />
<path d="M4.1088 46.2190
L4.1088 45.2190
" />
<path d="M4.1088 46.2190
L5.1088 46.2190
" />
<path d="M5.1088 32.2190
L4.1088 32.2190
" />
<path d="M17.1088 46.2190
L18.1088 46.2190
" />
<path d="M18.1088 32.2190
L17.1088 32.2190
" />
<path d="M18.1088 32.2190
L18.1088 33.2190
" />
<path d="M18.1088 45.2190
L18.1088 46.2190
" />
<path d="M61.1088 22.2190
L61.1088 21.2190
" />
<path d="M61.1088 35.2190
L61.1088 34.2190
" />
<path d="M61.1088 35.2190
L62.1088 35.2190
" />
<path d="M62.1088 21.2190
L61.1088 21.2190
" />
<path d="M74.1088 35.2190
L75.1088 35.2190
" />
<path d="M75.1088 21.2190
L74.1088 21.2190
" />
<path d="M75.1088 21.2190
L75.1088 22.2190
" />
<path d="M75.1088 34.2190
L75.1088 35.2190
" />
<path d="M110.2143 96.1039
L110.5889 95.1767
" />
<path d="M110.2143 96.1039
L111.1415 96.4785
" />
<path d="M115.0842 84.0505
L115.4588 83.1233
" />
<path d="M116.3860 83.4979
L115.4588 83.1233
" />
<path d="M122.2677 100.9738
L123.1949 101.3484
" />
<path d="M123.5695 100.4212
L123.1949 101.3484
" />
<path d="M128.4394 88.3678
L127.5122 87.9932
" />
<path d="M128.4394 88.3678
L128.0648 89.2950
" />
<path d="M4.1088 50.2190
L4.1088 49.2190
" />
<path d="M4.1088 63.2190
L4.1088 62.2190
" />
<path d="M4.1088 63.2190
L5.1088 63.2190
" />
<path d="M5.1088 49.2190
L4.1088 49.2190
" />
<path d="M17.1088 63.2190
L18.1088 63.2190
" />
<path d="M18.1088 49.2190
L17.1088 49.2190
" />
<path d="M18.1088 49.2190
L18.1088 50.2190
" />
<path d="M18.1088 62.2190
L18.1088 63.2190
" />
<path d="M42.1088 43.2190
L42.1088 42.2190
" />
<path d="M42.1088 56.2190
L42.1088 55.2190
" />
<path d="M42.1088 56.2190
L43.1088 56.2190
" />
<path d="M43.1088 42.2190
L42.1088 42.2190
" />
<path d="M55.1088 56.2190
L56.1088 56.2190
" />
<path d="M56.1088 42.2190
L55.1088 42.2190
" />
<path d="M56.1088 42.2190
L56.1088 43.2190
" />
<path d="M56.1088 55.2190
L56.1088 56.2190
" />
<path d="M99.1088 64.2190
L99.1088 63.2190
" />
<path d="M99.1088 77.2190
L99.1088 76.2190
" />
<path d="M99.1088 77.2190
L100.1088 77.2190
" />
<path d="M100.1088 63.2190
L99.1088 63.2190
" />
<path d="M112.1088 77.2190
L113.1088 77.2190
" />
<path d="M113.1088 63.2190
L112.1088 63.2190
" />
<path d="M113.1088 63.2190
L113.1088 64.2190
" />
<path d="M113.1088 76.2190
L113.1088 77.2190
" />
<path d="M118.1088 47.2190
L118.1088 46.2190
" />
<path d="M118.1088 60.2190
L118.1088 59.2190
" />
<path d="M118.1088 60.2190
L119.1088 60.2190
" />
<path d="M119.1088 46.2190
L118.1088 46.2190
" />
<path d="M131.1088 60.2190
L132.1088 60.2190
" />
<path d="M132.1088 46.2190
L131.1088 46.2190
" />
<path d="M132.1088 46.2190
L132.1088 47.2190
" />
<path d="M132.1088 59.2190
L132.1088 60.2190
" />
<path d="M23.1088 33.2190
L23.1088 32.2190
" />
<path d="M23.1088 46.2190
L23.1088 45.2190
" />
<path d="M23.1088 46.2190
L24.1088 46.2190
" />
<path d="M24.1088 32.2190
L23.1088 32.2190
" />
<path d="M36.1088 46.2190
L37.1088 46.2190
" />
<path d="M37.1088 32.2190
L36.1088 32.2190
" />
<path d="M37.1088 32.2190
L37.1088 33.2190
" />
<path d="M37.1088 45.2190
L37.1088 46.2190
" />
<path d="M99.1088 30.2190
L99.1088 29.2190
" />
<path d="M99.1088 43.2190
L99.1088 42.2190
" />
<path d="M99.1088 43.2190
L100.1088 43.2190
" />
<path d="M100.1088 29.2190
L99.1088 29.2190
" />
<path d="M112.1088 43.2190
L113.1088 43.2190
" />
<path d="M113.1088 29.2190
L112.1088 29.2190
" />
<path d="M113.1088 29.2190
L113.1088 30.2190
" />
<path d="M113.1088 42.2190
L113.1088 43.2190
" />
<path d="M80.1088 43.2190
L80.1088 42.2190
" />
<path d="M80.1088 56.2190
L80.1088 55.2190
" />
<path d="M80.1088 56.2190
L81.1088 56.2190
" />
<path d="M81.1088 42.2190
L80.1088 42.2190
" />
<path d="M93.1088 56.2190
L94.1088 56.2190
" />
<path d="M94.1088 42.2190
L93.1088 42.2190
" />
<path d="M94.1088 42.2190
L94.1088 43.2190
" />
<path d="M94.1088 55.2190
L94.1088 56.2190
" />
<path d="M42.1088 60.2190
L42.1088 59.2190
" />
<path d="M42.1088 73.2190
L42.1088 72.2190
" />
<path d="M42.1088 73.2190
L43.1088 73.2190
" />
<path d="M43.1088 59.2190
L42.1088 59.2190
" />
<path d="M55.1088 73.2190
L56.1088 73.2190
" />
<path d="M56.1088 59.2190
L55.1088 59.2190
" />
<path d="M56.1088 59.2190
L56.1088 60.2190
" />
<path d="M56.1088 72.2190
L56.1088 73.2190
" />
<path d="M42.1088 26.2190
L42.1088 25.2190
" />
<path d="M42.1088 39.2190
L42.1088 38.2190
" />
<path d="M42.1088 39.2190
L43.1088 39.2190
" />
<path d="M43.1088 25.2190
L42.1088 25.2190
" />
<path d="M55.1088 39.2190
L56.1088 39.2190
" />
<path d="M56.1088 25.2190
L55.1088 25.2190
" />
<path d="M56.1088 25.2190
L56.1088 26.2190
" />
<path d="M56.1088 38.2190
L56.1088 39.2190
" />
<path d="M127.2498 104.0056
L127.8926 103.2395
" />
<path d="M127.2498 104.0056
L128.0158 104.6484
" />
<path d="M135.6060 94.0470
L136.2488 93.2809
" />
<path d="M137.0149 93.9237
L136.2488 93.2809
" />
<path d="M137.2084 112.3618
L137.9744 113.0046
" />
<path d="M138.6172 112.2386
L137.9744 113.0046
" />
<path d="M146.9734 102.2800
L146.2074 101.6372
" />
<path d="M146.9734 102.2800
L146.3307 103.0460
" />
<path d="M61.1088 39.2190
L61.1088 38.2190
" />
<path d="M61.1088 52.2190
L61.1088 51.2190
" />
<path d="M61.1088 52.2190
L62.1088 52.2190
" />
<path d="M62.1088 38.2190
L61.1088 38.2190
" />
<path d="M74.1088 52.2190
L75.1088 52.2190
" />
<path d="M75.1088 38.2190
L74.1088 38.2190
" />
<path d="M75.1088 38.2190
L75.1088 39.2190
" />
<path d="M75.1088 51.2190
L75.1088 52.2190
" />
<path d="M91.1088 82.2190
L91.1088 81.2190
" />
<path d="M91.1088 95.2190
L91.1088 94.2190
" />
<path d="M91.1088 95.2190
L92.1088 95.2190
" />
<path d="M92.1088 81.2190
L91.1088 81.2190
" />
<path d="M104.1088 95.2190
L105.1088 95.2190
" />
<path d="M105.1088 81.2190
L104.1088 81.2190
" />
<path d="M105.1088 81.2190
L105.1088 82.2190
" />
<path d="M105.1088 94.2190
L105.1088 95.2190
" />
<path d="M80.1088 9.2190
L80.1088 8.2190
" />
<path d="M80.1088 22.2190
L80.1088 21.2190
" />
<path d="M80.1088 22.2190
L81.1088 22.2190
" />
<path d="M81.1088 8.2190
L80.1088 8.2190
" />
<path d="M93.1088 22.2190
L94.1088 22.2190
" />
<path d="M94.1088 8.2190
L93.1088 8.2190
" />
<path d="M94.1088 8.2190
L94.1088 9.2190
" />
<path d="M94.1088 21.2190
L94.1088 22.2190
" />
<path d="M118.1088 30.2190
L118.1088 29.2190
" />
<path d="M118.1088 43.2190
L118.1088 42.2190
" />
<path d="M118.1088 43.2190
L119.1088 43.2190
" />
<path d="M119.1088 29.2190
L118.1088 29.2190
" />
<path d="M131.1088 43.2190
L132.1088 43.2190
" />
<path d="M132.1088 29.2190
L131.1088 29.2190
" />
<path d="M132.1088 29.2190
L132.1088 30.2190
" />
<path d="M132.1088 42.2190
L132.1088 43.2190
" />
<path d="M118.1088 64.2190
L118.1088 63.2190
" />
<path d="M118.1088 77.2190
L118.1088 76.2190
" />
<path d="M118.1088 77.2190
L119.1088 77.2190
" />
<path d="M119.1088 63.2190
L118.1088 63.2190
" />
<path d="M131.1088 77.2190
L132.1088 77.2190
" />
<path d="M132.1088 63.2190
L131.1088 63.2190
" />
<path d="M132.1088 63.2190
L132.1088 64.2190
" />
<path d="M132.1088 76.2190
L132.1088 77.2190
" />
</g>
<g style="fill:none; 
stroke:#B4DBD2; stroke-width:0.1500; stroke-opacity:1; 
stroke-linecap:round; stroke-linejoin:round;">
<path d="M149.1175 102.4473
L135.7117 91.1985
" />
<path d="M57.8588 40.4690
L57.8588 23.9690
" />
<path d="M38.8588 47.9690
L21.3588 47.9690
" />
<path d="M97.3588 27.4690
L114.8588 27.4690
" />
<path d="M78.3588 57.9690
L78.3588 74.4690
" />
<path d="M57.8588 74.4690
L57.8588 57.9690
" />
<path d="M40.3588 74.4690
L57.8588 74.4690
" />
<path d="M106.8588 79.9690
L89.3588 79.9690
" />
<path d="M114.8588 10.9690
L97.3588 10.9690
" />
<path d="M130.5302 87.8644
L114.3045 81.3088
" />
<path d="M138.5115 115.0870
L149.1175 102.4473
" />
<path d="M116.3588 44.4690
L133.8588 44.4690
" />
<path d="M116.3588 27.9690
L116.3588 44.4690
" />
<path d="M38.8588 64.9690
L21.3588 64.9690
" />
<path d="M106.8588 96.4690
L106.8588 79.9690
" />
<path d="M97.3588 61.4690
L114.8588 61.4690
" />
<path d="M89.3588 96.4690
L106.8588 96.4690
" />
<path d="M116.3588 61.4690
L133.8588 61.4690
" />
<path d="M97.3588 61.9690
L97.3588 78.4690
" />
<path d="M95.8588 40.9690
L78.3588 40.9690
" />
<path d="M19.8588 47.4690
L19.8588 30.9690
" />
<path d="M95.8588 57.4690
L95.8588 40.9690
" />
<path d="M19.8588 47.9690
L2.3588 47.9690
" />
<path d="M133.8588 44.9690
L116.3588 44.9690
" />
<path d="M76.8588 53.4690
L76.8588 36.9690
" />
<path d="M19.8588 81.4690
L19.8588 64.9690
" />
<path d="M19.8588 30.9690
L2.3588 30.9690
" />
<path d="M133.8588 61.4690
L133.8588 44.9690
" />
<path d="M19.8588 64.9690
L2.3588 64.9690
" />
<path d="M133.8588 44.4690
L133.8588 27.9690
" />
<path d="M114.8588 61.9690
L97.3588 61.9690
" />
<path d="M57.8588 23.4690
L57.8588 6.9690
" />
<path d="M114.8588 61.4690
L114.8588 44.9690
" />
<path d="M2.3588 47.4690
L19.8588 47.4690
" />
<path d="M40.3588 23.4690
L57.8588 23.4690
" />
<path d="M59.3588 36.4690
L76.8588 36.4690
" />
<path d="M21.3588 64.4690
L38.8588 64.4690
" />
<path d="M2.3588 64.9690
L2.3588 81.4690
" />
<path d="M59.3588 36.9690
L59.3588 53.4690
" />
<path d="M114.8588 27.9690
L97.3588 27.9690
" />
<path d="M95.8588 6.9690
L78.3588 6.9690
" />
<path d="M78.3588 23.9690
L78.3588 40.4690
" />
<path d="M40.3588 57.9690
L40.3588 74.4690
" />
<path d="M78.3588 57.4690
L95.8588 57.4690
" />
<path d="M38.8588 13.9690
L21.3588 13.9690
" />
<path d="M57.8588 57.4690
L57.8588 40.9690
" />
<path d="M57.8588 57.9690
L40.3588 57.9690
" />
<path d="M38.8588 30.4690
L38.8588 13.9690
" />
<path d="M2.3588 30.9690
L2.3588 47.4690
" />
<path d="M116.3588 78.4690
L133.8588 78.4690
" />
<path d="M114.3045 81.3088
L108.1235 96.6073
" />
<path d="M76.8588 2.9690
L59.3588 2.9690
" />
<path d="M97.3588 44.4690
L114.8588 44.4690
" />
<path d="M133.8588 27.9690
L116.3588 27.9690
" />
<path d="M21.3588 64.9690
L21.3588 81.4690
" />
<path d="M125.1057 103.8382
L138.5115 115.0870
" />
<path d="M95.8588 74.4690
L95.8588 57.9690
" />
<path d="M57.8588 6.9690
L40.3588 6.9690
" />
<path d="M95.8588 57.9690
L78.3588 57.9690
" />
<path d="M40.3588 40.4690
L57.8588 40.4690
" />
<path d="M38.8588 64.4690
L38.8588 47.9690
" />
<path d="M95.8588 40.4690
L95.8588 23.9690
" />
<path d="M38.8588 47.4690
L38.8588 30.9690
" />
<path d="M97.3588 44.9690
L97.3588 61.4690
" />
<path d="M76.8588 70.4690
L76.8588 53.9690
" />
<path d="M40.3588 23.9690
L40.3588 40.4690
" />
<path d="M19.8588 64.4690
L19.8588 47.9690
" />
<path d="M59.3588 53.4690
L76.8588 53.4690
" />
<path d="M133.8588 78.4690
L133.8588 61.9690
" />
<path d="M21.3588 81.4690
L38.8588 81.4690
" />
<path d="M78.3588 23.4690
L95.8588 23.4690
" />
<path d="M76.8588 19.9690
L59.3588 19.9690
" />
<path d="M21.3588 30.4690
L38.8588 30.4690
" />
<path d="M95.8588 23.9690
L78.3588 23.9690
" />
<path d="M57.8588 23.9690
L40.3588 23.9690
" />
<path d="M114.8588 27.4690
L114.8588 10.9690
" />
<path d="M59.3588 2.9690
L59.3588 19.4690
" />
<path d="M97.3588 10.9690
L97.3588 27.4690
" />
<path d="M40.3588 57.4690
L57.8588 57.4690
" />
<path d="M135.7117 91.1985
L125.1057 103.8382
" />
<path d="M114.8588 44.9690
L97.3588 44.9690
" />
<path d="M21.3588 47.9690
L21.3588 64.4690
" />
<path d="M21.3588 30.9690
L21.3588 47.4690
" />
<path d="M59.3588 70.4690
L76.8588 70.4690
" />
<path d="M57.8588 40.9690
L40.3588 40.9690
" />
<path d="M133.8588 61.9690
L116.3588 61.9690
" />
<path d="M2.3588 81.4690
L19.8588 81.4690
" />
<path d="M78.3588 40.9690
L78.3588 57.4690
" />
<path d="M114.8588 44.4690
L114.8588 27.9690
" />
<path d="M116.3588 44.9690
L116.3588 61.4690
" />
<path d="M76.8588 19.4690
L76.8588 2.9690
" />
<path d="M116.3588 61.9690
L116.3588 78.4690
" />
<path d="M108.1235 96.6073
L124.3492 103.1629
" />
<path d="M38.8588 30.9690
L21.3588 30.9690
" />
<path d="M2.3588 64.4690
L19.8588 64.4690
" />
<path d="M59.3588 53.9690
L59.3588 70.4690
" />
<path d="M2.3588 47.9690
L2.3588 64.4690
" />
<path d="M78.3588 40.4690
L95.8588 40.4690
" />
<path d="M21.3588 47.4690
L38.8588 47.4690
" />
<path d="M78.3588 74.4690
L95.8588 74.4690
" />
<path d="M21.3588 13.9690
L21.3588 30.4690
" />
<path d="M78.3588 6.9690
L78.3588 23.4690
" />
<path d="M114.8588 78.4690
L114.8588 61.9690
" />
<path d="M76.8588 36.4690
L76.8588 19.9690
" />
<path d="M97.3588 78.4690
L114.8588 78.4690
" />
<path d="M89.3588 79.9690
L89.3588 96.4690
" />
<path d="M124.3492 103.1629
L130.5302 87.8644
" />
<path d="M76.8588 36.9690
L59.3588 36.9690
" />
<path d="M95.8588 23.4690
L95.8588 6.9690
" />
<path d="M40.3588 40.9690
L40.3588 57.4690
" />
<path d="M38.8588 81.4690
L38.8588 64.9690
" />
<path d="M59.3588 19.9690
L59.3588 36.4690
" />
<path d="M59.3588 19.4690
L76.8588 19.4690
" />
<path d="M40.3588 6.9690
L40.3588 23.4690
" />
<path d="M97.3588 27.9690
L97.3588 44.4690
" />
<path d="M76.8588 53.9690
L59.3588 53.9690
" />
</g>
<g style="fill:none; 
stroke:#D0D2CD; stroke-width:0.2000; stroke-opacity:1; 
stroke-linecap:round; stroke-linejoin:round;">
<path d="M158.1088 46.2190 A105.1190 105.1190 0.0 0 0 0.1000 27.7093" />
</g>
<g style="fill:none; 
stroke:#D0D2CD; stroke-width:0.1500; stroke-opacity:1; 
stroke-linecap:round; stroke-linejoin:round;">
<path d="M152.2874 102.1700
L138.6088 118.2190
" />
<path d="M0.1088 83.7190
L0.1000 27.7093
" />
<path d="M158.1088 46.2190
L158.1088 86.6190
" />
<path d="M87.1106 98.4502
L87.1088 89.2190
" />
</g>
<g style="fill:none; 
stroke:#D0D2CD; stroke-width:0.2000; stroke-opacity:1; 
stroke-linecap:round; stroke-linejoin:round;">
<path d="M138.6088 118.2190 A78.2704 78.2704 0.0 0 0 87.1106 98.4502" />
</g>
<g style="fill:none; 
stroke:#D0D2CD; stroke-width:0.1500; stroke-opacity:1; 
stroke-linecap:round; stroke-linejoin:round;">
<path d="M87.1088 89.2190 A5.5000 5.5000 0.0 0 0 81.6088 83.7190" />
<path d="M81.6088 83.7190
L0.1088 83.7190
" />
<path d="M158.1088 86.6190
L152.2874 102.1700
" />
</g> 
</svg>
