<?xml version="1.0" standalone="no"?>
 <!DOCTYPE svg PUBLIC "-//W3C//DTD SVG 1.1//EN" 
 "http://www.w3.org/Graphics/SVG/1.1/DTD/svg11.dtd"> 
<svg
  xmlns:svg="http://www.w3.org/2000/svg"
  xmlns="http://www.w3.org/2000/svg"
  xmlns:xlink="http://www.w3.org/1999/xlink"
  version="1.1"
  width="158.1404mm" height="117.2210mm" viewBox="0.0000 0.0000 158.1404 117.2210">
<title>SVG Image created as vale_ufo-brd.svg date 2024/10/09 17:11:46 </title>
  <desc>Image generated by PCBNEW </desc>
<g style="fill:#000000; fill-opacity:1.0000;stroke:#000000; stroke-opacity:1.0000;
stroke-linecap:round; stroke-linejoin:round;"
 transform="translate(0 0) scale(1 1)">
</g>
<g style="fill:none; 
stroke:#000000; stroke-width:0.1500; stroke-opacity:1; 
stroke-linecap:round; stroke-linejoin:round;">
<path d="M149.0837 102.3813
L135.6779 91.1325
" />
<path d="M57.8250 40.4029
L57.8250 23.9029
" />
<path d="M38.8250 47.9029
L21.3250 47.9029
" />
<path d="M97.3250 27.4029
L114.8250 27.4029
" />
<path d="M78.3250 57.9029
L78.3250 74.4029
" />
<path d="M57.8250 74.4029
L57.8250 57.9029
" />
<path d="M40.3250 74.4029
L57.8250 74.4029
" />
<path d="M106.8250 79.9029
L89.3250 79.9029
" />
<path d="M114.8250 10.9029
L97.3250 10.9029
" />
<path d="M130.4964 87.7984
L114.2707 81.2427
" />
<path d="M138.4777 115.0210
L149.0837 102.3813
" />
<path d="M116.3250 44.4029
L133.8250 44.4029
" />
<path d="M116.3250 27.9029
L116.3250 44.4029
" />
<path d="M38.8250 64.9029
L21.3250 64.9029
" />
<path d="M106.8250 96.4029
L106.8250 79.9029
" />
<path d="M97.3250 61.4029
L114.8250 61.4029
" />
<path d="M89.3250 96.4029
L106.8250 96.4029
" />
<path d="M116.3250 61.4029
L133.8250 61.4029
" />
<path d="M97.3250 61.9029
L97.3250 78.4029
" />
<path d="M95.8250 40.9029
L78.3250 40.9029
" />
<path d="M19.8250 47.4029
L19.8250 30.9029
" />
<path d="M95.8250 57.4029
L95.8250 40.9029
" />
<path d="M19.8250 47.9029
L2.3250 47.9029
" />
<path d="M133.8250 44.9029
L116.3250 44.9029
" />
<path d="M76.8250 53.4029
L76.8250 36.9029
" />
<path d="M19.8250 81.4029
L19.8250 64.9029
" />
<path d="M19.8250 30.9029
L2.3250 30.9029
" />
<path d="M133.8250 61.4029
L133.8250 44.9029
" />
<path d="M19.8250 64.9029
L2.3250 64.9029
" />
<path d="M133.8250 44.4029
L133.8250 27.9029
" />
<path d="M114.8250 61.9029
L97.3250 61.9029
" />
<path d="M57.8250 23.4029
L57.8250 6.9029
" />
<path d="M114.8250 61.4029
L114.8250 44.9029
" />
<path d="M2.3250 47.4029
L19.8250 47.4029
" />
<path d="M40.3250 23.4029
L57.8250 23.4029
" />
<path d="M59.3250 36.4029
L76.8250 36.4029
" />
<path d="M21.3250 64.4029
L38.8250 64.4029
" />
<path d="M2.3250 64.9029
L2.3250 81.4029
" />
<path d="M59.3250 36.9029
L59.3250 53.4029
" />
<path d="M114.8250 27.9029
L97.3250 27.9029
" />
<path d="M95.8250 6.9029
L78.3250 6.9029
" />
<path d="M78.3250 23.9029
L78.3250 40.4029
" />
<path d="M40.3250 57.9029
L40.3250 74.4029
" />
<path d="M78.3250 57.4029
L95.8250 57.4029
" />
<path d="M38.8250 13.9029
L21.3250 13.9029
" />
<path d="M57.8250 57.4029
L57.8250 40.9029
" />
<path d="M57.8250 57.9029
L40.3250 57.9029
" />
<path d="M38.8250 30.4029
L38.8250 13.9029
" />
<path d="M2.3250 30.9029
L2.3250 47.4029
" />
<path d="M116.3250 78.4029
L133.8250 78.4029
" />
<path d="M114.2707 81.2427
L108.0896 96.5413
" />
<path d="M76.8250 2.9029
L59.3250 2.9029
" />
<path d="M97.3250 44.4029
L114.8250 44.4029
" />
<path d="M133.8250 27.9029
L116.3250 27.9029
" />
<path d="M21.3250 64.9029
L21.3250 81.4029
" />
<path d="M125.0719 103.7722
L138.4777 115.0210
" />
<path d="M95.8250 74.4029
L95.8250 57.9029
" />
<path d="M57.8250 6.9029
L40.3250 6.9029
" />
<path d="M95.8250 57.9029
L78.3250 57.9029
" />
<path d="M40.3250 40.4029
L57.8250 40.4029
" />
<path d="M38.8250 64.4029
L38.8250 47.9029
" />
<path d="M95.8250 40.4029
L95.8250 23.9029
" />
<path d="M38.8250 47.4029
L38.8250 30.9029
" />
<path d="M97.3250 44.9029
L97.3250 61.4029
" />
<path d="M76.8250 70.4029
L76.8250 53.9029
" />
<path d="M40.3250 23.9029
L40.3250 40.4029
" />
<path d="M19.8250 64.4029
L19.8250 47.9029
" />
<path d="M59.3250 53.4029
L76.8250 53.4029
" />
<path d="M133.8250 78.4029
L133.8250 61.9029
" />
<path d="M21.3250 81.4029
L38.8250 81.4029
" />
<path d="M78.3250 23.4029
L95.8250 23.4029
" />
<path d="M76.8250 19.9029
L59.3250 19.9029
" />
<path d="M21.3250 30.4029
L38.8250 30.4029
" />
<path d="M95.8250 23.9029
L78.3250 23.9029
" />
<path d="M57.8250 23.9029
L40.3250 23.9029
" />
<path d="M114.8250 27.4029
L114.8250 10.9029
" />
<path d="M59.3250 2.9029
L59.3250 19.4029
" />
<path d="M97.3250 10.9029
L97.3250 27.4029
" />
<path d="M40.3250 57.4029
L57.8250 57.4029
" />
<path d="M135.6779 91.1325
L125.0719 103.7722
" />
<path d="M114.8250 44.9029
L97.3250 44.9029
" />
<path d="M21.3250 47.9029
L21.3250 64.4029
" />
<path d="M21.3250 30.9029
L21.3250 47.4029
" />
<path d="M59.3250 70.4029
L76.8250 70.4029
" />
<path d="M57.8250 40.9029
L40.3250 40.9029
" />
<path d="M133.8250 61.9029
L116.3250 61.9029
" />
<path d="M2.3250 81.4029
L19.8250 81.4029
" />
<path d="M78.3250 40.9029
L78.3250 57.4029
" />
<path d="M114.8250 44.4029
L114.8250 27.9029
" />
<path d="M116.3250 44.9029
L116.3250 61.4029
" />
<path d="M76.8250 19.4029
L76.8250 2.9029
" />
<path d="M116.3250 61.9029
L116.3250 78.4029
" />
<path d="M108.0896 96.5413
L124.3154 103.0969
" />
<path d="M38.8250 30.9029
L21.3250 30.9029
" />
<path d="M2.3250 64.4029
L19.8250 64.4029
" />
<path d="M59.3250 53.9029
L59.3250 70.4029
" />
<path d="M2.3250 47.9029
L2.3250 64.4029
" />
<path d="M78.3250 40.4029
L95.8250 40.4029
" />
<path d="M21.3250 47.4029
L38.8250 47.4029
" />
<path d="M78.3250 74.4029
L95.8250 74.4029
" />
<path d="M21.3250 13.9029
L21.3250 30.4029
" />
<path d="M78.3250 6.9029
L78.3250 23.4029
" />
<path d="M114.8250 78.4029
L114.8250 61.9029
" />
<path d="M76.8250 36.4029
L76.8250 19.9029
" />
<path d="M97.3250 78.4029
L114.8250 78.4029
" />
<path d="M89.3250 79.9029
L89.3250 96.4029
" />
<path d="M124.3154 103.0969
L130.4964 87.7984
" />
<path d="M76.8250 36.9029
L59.3250 36.9029
" />
<path d="M95.8250 23.4029
L95.8250 6.9029
" />
<path d="M40.3250 40.9029
L40.3250 57.4029
" />
<path d="M38.8250 81.4029
L38.8250 64.9029
" />
<path d="M59.3250 19.9029
L59.3250 36.4029
" />
<path d="M59.3250 19.4029
L76.8250 19.4029
" />
<path d="M40.3250 6.9029
L40.3250 23.4029
" />
<path d="M97.3250 27.9029
L97.3250 44.4029
" />
<path d="M76.8250 53.9029
L59.3250 53.9029
" />
<path d="M0.8750 27.0529 A2.0000 2.0000 0.0 0 0 0.0750 28.6529" />
<path d="M158.0750 46.1529 A105.0253 105.0253 0.0 0 0 0.8750 27.0529" />
<path d="M0.0750 81.1529 A2.5000 2.5000 0.0 0 0 2.5750 83.6529" />
<path d="M87.0750 96.1529 A2.5000 2.5000 0.0 0 0 89.5750 98.6529" />
<path d="M152.2535 102.1039
L140.3428 116.4207
" />
<path d="M0.0750 81.1529
L0.0750 28.6529
" />
<path d="M132.0750 112.3905
L137.0750 116.6529
" />
<path d="M158.0750 46.1529
L158.0750 86.5529
" />
<path d="M87.0750 96.1529
L87.0750 89.1529
" />
<path d="M87.0750 89.1529 A5.5000 5.5000 0.0 0 0 81.5750 83.6529" />
<path d="M132.0750 112.3905 A57.2823 57.2823 0.0 0 0 94.5750 98.6529" />
<path d="M81.5750 83.6529
L2.5750 83.6529
" />
<path d="M137.0750 116.6529 A2.5000 2.5000 0.0 0 0 140.3428 116.4207" />
<path d="M89.5750 98.6529
L94.5750 98.6529
" />
<path d="M158.0750 86.5529
L152.2535 102.1039
" />
</g> 
</svg>
